<svg width="512.016" height="512.016" xmlns="http://www.w3.org/2000/svg">

 <g>
  <title>background</title>
  <rect fill="none" id="canvas_background" height="402" width="582" y="-1" x="-1"/>
 </g>
 <g>
  <title>Layer 1</title>
  <path id="svg_1" fill="#FFCE54" d="m17.25,493.132c3.625,-10.188 8.344,-23.141 13.625,-36.563c19.875,-50.642 30.407,-65.782 34.938,-70.298c6.781,-6.797 15.188,-11.375 24.313,-13.266l3.156,-0.656l35.344,-35.75l42.312,48.875l-32.906,31.516l-0.688,3.235c-1.875,9.125 -6.469,17.531 -13.25,24.344c-4.531,4.5 -19.656,15.062 -70.282,34.923c-13.436,5.265 -26.406,10.015 -36.562,13.64z"/>
  <path id="svg_2" fill="#F6BB42" d="m129.158,320.943l-41.188,41.641c-10.719,2.219 -21.126,7.609 -29.688,16.172c-21.875,21.874 -58.282,131.61 -58.282,131.61s109.72,-36.391 131.626,-58.282c8.531,-8.547 13.938,-18.969 16.156,-29.703l37.812,-36.22l-56.436,-65.218zm3.906,86.062l-4.781,4.594l-1.344,6.484c-1.469,7.079 -5.062,13.642 -10.375,18.954c-1.75,1.75 -13.219,11.578 -66.563,32.517c-5.094,1.984 -10.094,3.906 -14.906,5.703c1.812,-4.812 3.719,-9.812 5.719,-14.876c20.938,-53.36 30.75,-64.829 32.531,-66.579c5.313,-5.328 11.876,-8.906 18.938,-10.359l6.312,-1.312l4.531,-4.578l24.969,-25.281l28.156,32.516l-23.187,22.217z"/>
  <g id="svg_3">
   <path id="svg_4" fill="#90b6d0" d="m199.909,423.397c5.969,-2.797 11.938,-5.767 17.875,-8.876l121.501,-86.781c4.969,-4.641 9.875,-9.391 14.719,-14.203c2.781,-2.812 5.563,-5.625 8.282,-8.469c-0.469,55.359 -25.845,115.923 -74.032,164.127c-16.062,16.047 -33.469,29.562 -51.625,40.484c-0.125,0.078 -0.845,0.5 -0.845,0.5c-4.031,2.188 -9.188,1.578 -12.594,-1.828c-1.125,-1.141 -1.938,-2.469 -2.438,-3.875c0,0 -0.375,-1.109 -0.469,-1.594l-21.938,-78.767c0.533,-0.234 1.033,-0.484 1.564,-0.718z"/>
   <path id="svg_5" fill="#90b6d0" d="m207.534,150.269c-2.844,2.734 -5.656,5.516 -8.469,8.312c-4.813,4.828 -9.563,9.734 -14.188,14.703c-21.281,3 -86.812,121.517 -86.812,121.517c-3.094,5.938 -6.062,11.892 -8.875,17.876c-0.25,0.516 -0.469,1.031 -0.719,1.547l-78.783,-21.939c-0.469,-0.094 -1.594,-0.469 -1.594,-0.469c-1.406,-0.5 -2.719,-1.312 -3.875,-2.453c-3.406,-3.406 -4,-8.547 -1.812,-12.594c0,0 0.406,-0.703 0.5,-0.828c10.906,-18.157 24.406,-35.563 40.469,-51.625c48.219,-48.219 108.782,-73.594 164.158,-74.047z"/>
  </g>
  <path id="svg_6" fill="#E6E9ED" d="m197.003,151.05c-60.408,60.422 -103.97,129.438 -128.252,196.299c-1.281,3.75 -0.469,8.031 2.531,11.016l82.907,82.938c3,2.969 7.281,3.797 11.031,2.516c66.876,-24.282 135.877,-67.829 196.285,-128.251c93.876,-93.845 146.563,-207.081 150.501,-303.645c0.125,-2.875 -0.906,-6.047 -3.094,-8.25c-2.219,-2.203 -5.375,-3.234 -8.281,-3.109c-96.562,3.937 -209.783,56.641 -303.628,150.486z"/>
  <g id="svg_7">
   <path id="svg_8" fill="#434A54" d="m317.598,237.535c-11.375,0 -22.062,-4.438 -30.094,-12.469c-8.031,-8.047 -12.469,-18.735 -12.469,-30.11s4.438,-22.063 12.469,-30.11c8.031,-8.031 18.75,-12.469 30.094,-12.469c11.375,0 22.062,4.438 30.125,12.469c16.595,16.61 16.595,43.625 0,60.22c-8.062,8.031 -18.75,12.469 -30.094,12.469c-0.031,0 -0.031,0 -0.031,0z"/>
   <path id="svg_9" fill="#434A54" d="m227.284,327.849c-11.375,0 -22.062,-4.422 -30.094,-12.469c-8.032,-8.031 -12.47,-18.735 -12.47,-30.095c0,-11.375 4.438,-22.078 12.47,-30.125c8.031,-8.031 18.719,-12.469 30.094,-12.469c11.376,0 22.063,4.438 30.126,12.469c16.594,16.61 16.594,43.626 0,60.22c-8.063,8.047 -18.75,12.469 -30.126,12.469l0,0z"/>
  </g>
  <g id="svg_10">
   <path id="svg_11" fill="#CCD1D9" d="m355.254,157.331c-10.062,-10.047 -23.438,-15.594 -37.656,-15.594c-14.188,0 -27.562,5.547 -37.625,15.594c-10.031,10.047 -15.594,23.422 -15.594,37.625c0,14.219 5.562,27.579 15.594,37.641c10.062,10.046 23.438,15.578 37.625,15.578c14.219,0 27.594,-5.531 37.656,-15.578c20.751,-20.75 20.751,-54.515 0,-75.266zm-15.062,60.204c-6.25,6.234 -14.406,9.359 -22.594,9.359c-8.156,0 -16.344,-3.125 -22.562,-9.359c-12.469,-12.469 -12.469,-32.688 0,-45.157c6.219,-6.234 14.406,-9.344 22.562,-9.344c8.188,0 16.344,3.109 22.594,9.344c12.468,12.469 12.468,32.688 0,45.157z"/>
   <path id="svg_12" fill="#CCD1D9" d="m227.284,232.067c-14.219,0 -27.562,5.531 -37.626,15.578c-10.062,10.046 -15.594,23.422 -15.594,37.641c0,14.204 5.531,27.563 15.594,37.626c10.063,10.047 23.407,15.594 37.626,15.594c14.22,0 27.595,-5.547 37.658,-15.594c20.75,-20.75 20.75,-54.517 0,-75.267c-10.063,-10.047 -23.438,-15.578 -37.658,-15.578zm22.595,75.782c-6.25,6.25 -14.407,9.359 -22.595,9.359c-8.156,0 -16.344,-3.109 -22.562,-9.359c-12.47,-12.47 -12.47,-32.688 0,-45.157c6.219,-6.235 14.406,-9.344 22.562,-9.344c8.188,0 16.345,3.109 22.595,9.344c12.469,12.468 12.469,32.687 0,45.157z"/>
  </g>
  <path id="svg_13" fill="#90b6d0" d="m479.225,145.816l-112.47,-112.455c45.813,-19.922 91.47,-31.063 133.876,-32.797c2.906,-0.125 6.062,0.906 8.281,3.109c2.188,2.203 3.219,5.375 3.094,8.25c-1.719,42.438 -12.875,88.08 -32.781,133.893z"/>
  <g id="svg_14"/>
  <g id="svg_15"/>
  <g id="svg_16"/>
  <g id="svg_17"/>
  <g id="svg_18"/>
  <g id="svg_19"/>
  <g id="svg_20"/>
  <g id="svg_21"/>
  <g id="svg_22"/>
  <g id="svg_23"/>
  <g id="svg_24"/>
  <g id="svg_25"/>
  <g id="svg_26"/>
  <g id="svg_27"/>
  <g id="svg_28"/>
 </g>
</svg>