<svg version="1.1" xmlns="http://www.w3.org/2000/svg" xmlns:xlink="http://www.w3.org/1999/xlink" x="0px" y="0px"
width="200px" height="116px" viewBox="0 0 85.167 96" enable-background="new 0 0 85.167 96" xml:space="preserve">
<polygon fill="#FF6550" points="82.823,25.479 42.88,2.234 42.879,2.235 42.878,2.234 2.94,25.2 2.94,25.202 42.878,48.444
42.883,48.446 42.883,48.446 42.884,48.447 "/>
<polygon fill="#FF3540" points="2.942,25.207 2.942,25.208 2.94,25.207 2.94,71.414 2.963,71.427 42.878,94.655 42.878,94.655
42.88,94.656 42.88,48.461 42.88,48.449 "/>
<polygon fill="#7C1400" points="82.822,25.481 82.822,25.479 42.893,48.452 42.878,48.461 42.878,94.655 42.885,94.66 42.886,94.66
42.887,94.66 82.824,71.695 82.824,71.69 82.824,25.479 "/>
</svg>
