<svg version="1.1" xmlns="http://www.w3.org/2000/svg" xmlns:xlink="http://www.w3.org/1999/xlink" x="0px" y="0px"
	 width="295px" height="172px" viewBox="0 0 283.9791565 165.1845703"
	 enable-background="new 0 0 283.9791565 165.1845703" xml:space="preserve">
<g>
	<g>
		<polygon fill="#00e7ff" points="47.289772,55.2744179 47.2904282,55.2739487 47.292263,55.2751236 47.690712,55.0458412 
			94.6058807,28.0516148 47.2858696,0.5137002 47.2856331,0.5141703 47.2854004,0.5143583 47.2842712,0.5137002 
			47.283329,0.5137002 -0.0422253,27.7291698 47.283329,55.270752 		"/>
		<polygon fill="#00abed" points="47.283329,110.0305786 47.283329,110.0296326 47.2856331,110.0309982 47.2856331,55.278553 
			47.2856331,55.2780838 -0.0465496,27.7330723 -0.0465496,27.7334957 -0.0479597,27.7326012 -0.0479597,82.4855194 
			-0.025915,82.4985809 		"/>
		<polygon fill="#0085BF" points="94.6164551,28.058712 47.6891136,55.0453682 47.289772,55.2744179 47.2842712,55.2780838 
			47.2842712,110.0305786 47.2936707,110.0360718 47.2941399,110.0358429 47.2955055,110.036499 94.6185226,82.8224411 
			94.6189423,82.8229065 94.6189423,82.8162308 94.6189423,28.0594177 94.6164551,28.0607796 		"/>
	</g>
	<g>
		<polygon fill="#7070EF" points="94.6464386,82.8115234 94.6471024,82.8110504 94.6489334,82.8122253 95.0473785,82.5829468 
			141.9625549,55.5887184 94.64254,28.0508041 94.6423035,28.0512733 94.6420746,28.0514622 94.6409454,28.0508041 
			94.6399994,28.0508041 47.3144455,55.2662735 94.6399994,82.8078537 		"/>
		<polygon fill="#474799" points="94.6399994,137.5676727 94.6399994,137.5667419 94.6423035,137.5681 94.6423035,82.8156586 
			94.6423035,82.8151855 47.3101234,55.2701759 47.3101234,55.2705994 47.308712,55.2697067 47.308712,110.0226212 
			47.3307571,110.0356903 		"/>
		<polygon fill="#3D3D89" points="141.9731293,55.5958176 95.045784,82.5824738 94.6464386,82.8115234 94.6409454,82.8151855 
			94.6409454,137.5676727 94.6503448,137.5731812 94.6508102,137.572937 94.6521759,137.5736084 141.9751892,110.3595428 
			141.9756165,110.3600082 141.9756165,110.3533401 141.9756165,55.5965195 141.9731293,55.5978851 		"/>
	</g>
	<g>
		<polygon fill="#00e7ff" points="236.69664,55.988636 236.6972961,55.9881668 236.6991272,55.9893417 237.09758,55.7600594 
			284.0127563,28.7658348 236.6927338,1.2279197 236.6925049,1.2283897 236.6922607,1.2285777 236.6911316,1.2279197 
			236.6902008,1.2279197 189.3646393,28.4433899 236.6902008,55.9849701 		"/>
		<polygon fill="#29BBD3" points="236.6902008,110.7447968 236.6902008,110.7438583 236.6925049,110.7452164 236.6925049,55.992775 
			236.6925049,55.9923019 189.360321,28.4472904 189.360321,28.4477139 189.358902,28.4468212 189.358902,83.1997375 
			189.3809509,83.2128067 		"/>
		<polygon fill="#0076b1" points="284.0233154,28.7729321 237.0959778,55.7595901 236.69664,55.988636 236.6911316,55.9923019 
			236.6911316,110.7447968 236.7005463,110.7502975 236.701004,110.750061 236.7023773,110.7507172 284.0253906,83.5366592 
			284.0258179,83.5371246 284.0258179,83.5304565 284.0258179,28.7736378 284.0233154,28.7749996 		"/>
	</g>
	<g>
		<polygon fill="#7070EF" points="189.3895569,83.2083054 189.390213,83.20784 189.3920441,83.2090149 189.7904968,82.9797287 
			236.7056732,55.9855042 189.3856506,28.4475899 189.3854218,28.4480591 189.3851929,28.4482479 189.3840637,28.4475899 
			189.3831177,28.4475899 142.0575562,55.6630592 189.3831177,83.2046432 		"/>
		<polygon fill="#4D4DB5" points="189.3831177,137.9644623 189.3831177,137.9635315 189.3854218,137.9648895 
			189.3854218,83.2124405 189.3854218,83.2119751 142.0532379,55.6669617 142.0532379,55.6673851 142.0518341,55.6664925 
			142.0518341,110.4194031 142.0738678,110.4324722 		"/>
		<polygon fill="#2D2D6B" points="236.7162476,55.9926033 189.7888947,82.9792557 189.3895569,83.2083054 189.3840637,83.2119751 
			189.3840637,137.9644623 189.3934631,137.9699707 189.3939362,137.9697266 189.3952942,137.9703827 236.7183075,110.7563248 
			236.7187347,110.7567978 236.7187347,110.7501221 236.7187347,55.9933052 236.7162476,55.9946709 		"/>
	</g>
	<g>
		<polygon fill="#FF6550" points="142.0229492,110.4279861 142.0236053,110.4275131 142.0254364,110.428688 
			142.4238892,110.1994019 189.3390656,83.2051773 142.019043,55.6672668 142.0188141,55.6677361 142.0185852,55.667923 
			142.0174561,55.6672668 142.01651,55.6672668 94.6909561,82.8827362 142.01651,110.4243164 		"/>
		<polygon fill="#FF3540" points="142.01651,165.1841431 142.01651,165.183197 142.0188141,165.1845703 142.0188141,110.4321213 
			142.0188141,110.4316483 94.6866302,82.8866348 94.6866302,82.8870621 94.6852188,82.8861694 94.6852188,137.6390839 
			94.7072678,137.6521454 		"/>
		<polygon fill="#7C1400" points="189.3496399,83.2122803 142.422287,110.1989365 142.0229492,110.4279861 142.0174561,110.4316483 
			142.0174561,165.1841431 142.0268555,165.1896362 142.0273285,165.1894073 142.0286865,165.1900635 189.3516998,137.9759979 
			189.3521271,137.9764709 189.3521271,137.9698029 189.3521271,83.2129822 189.3496399,83.2143478 		"/>
	</g>
</g>
</svg>
